<svg width="37" height="25" viewBox="0 0 37 25" fill="none" xmlns="http://www.w3.org/2000/svg">
<path d="M7.98242 11.0117L8.01758 10.0391L7.38477 9.98047L7.52539 4.89453L4.06836 4.85938C4.08008 4.50391 4.11719 4.2168 4.17969 3.99805C4.24609 3.77539 4.34961 3.60352 4.49023 3.48242C4.63086 3.36133 4.8125 3.28125 5.03516 3.24219C5.26172 3.20312 5.54102 3.1875 5.87305 3.19531L5.89648 2.16406C5.81445 2.15625 5.73438 2.15039 5.65625 2.14648C5.57812 2.14258 5.49805 2.14062 5.41602 2.14062C4.94727 2.14062 4.55859 2.20312 4.25 2.32812C3.94531 2.45312 3.70117 2.63281 3.51758 2.86719C3.33789 3.10156 3.20898 3.38672 3.13086 3.72266C3.05664 4.05859 3.01758 4.4375 3.01367 4.85938H2.19336L2.16992 5.89062H3.02539V9.78125L2.25195 9.80469V10.8359H4.72461L4.75977 9.86328L4.08008 9.88672V5.96094L6.33008 5.91406V9.86328L5.83789 9.89844V10.918L7.98242 11.0117Z" fill="#83A5FF"/>
<path d="M7.4668 3.77539C7.50586 3.68555 7.52539 3.58984 7.52539 3.48828C7.52539 3.38672 7.50586 3.29102 7.4668 3.20117C7.42773 3.11133 7.375 3.0332 7.30859 2.9668C7.24219 2.90039 7.16406 2.84766 7.07422 2.80859C6.98438 2.76953 6.88867 2.75 6.78711 2.75C6.68555 2.75 6.58984 2.76953 6.5 2.80859C6.41016 2.84766 6.33203 2.90039 6.26562 2.9668C6.19922 3.0332 6.14648 3.11133 6.10742 3.20117C6.06836 3.29102 6.04883 3.38672 6.04883 3.48828C6.04883 3.58984 6.06836 3.68555 6.10742 3.77539C6.14648 3.86523 6.19922 3.94336 6.26562 4.00977C6.33203 4.07617 6.41016 4.12891 6.5 4.16797C6.58984 4.20703 6.68555 4.22656 6.78711 4.22656C6.88867 4.22656 6.98438 4.20703 7.07422 4.16797C7.16406 4.12891 7.24219 4.07617 7.30859 4.00977C7.375 3.94336 7.42773 3.86523 7.4668 3.77539Z" fill="#83A5FF"/>
<path d="M13.0918 10.9648L13.209 10.0273L12.6113 9.96875L12.6465 8.3457C12.6621 7.80664 12.6699 7.26562 12.6699 6.72266C12.6699 6.58594 12.666 6.44336 12.6582 6.29492C12.6504 6.14258 12.6328 5.99414 12.6055 5.84961C12.5781 5.70117 12.5391 5.5625 12.4883 5.43359C12.4414 5.30078 12.375 5.18359 12.2891 5.08203C12.2031 4.98047 12.0977 4.90039 11.9727 4.8418C11.8477 4.7832 11.6973 4.75391 11.5215 4.75391C11.373 4.75391 11.2266 4.7793 11.082 4.83008C10.9414 4.87695 10.8066 4.94141 10.6777 5.02344C10.5488 5.10547 10.4297 5.20117 10.3203 5.31055C10.2148 5.41602 10.123 5.52734 10.0449 5.64453L10.0098 4.8125L8.32227 4.87109L8.29883 5.86719L9.1543 5.92578L9.18945 9.73438L8.61523 9.76953V10.8477L10.6426 10.8242L10.584 9.875H10.0684C10.0762 9.43359 10.082 8.99414 10.0859 8.55664C10.0938 8.11914 10.1074 7.67969 10.127 7.23828C10.1309 7.10156 10.1504 6.95117 10.1855 6.78711C10.2207 6.62305 10.2754 6.4707 10.3496 6.33008C10.4238 6.18945 10.5195 6.07227 10.6367 5.97852C10.7578 5.88086 10.9043 5.83203 11.0762 5.83203C11.1934 5.83203 11.2891 5.85938 11.3633 5.91406C11.4414 5.96875 11.502 6.03906 11.5449 6.125C11.5879 6.21094 11.6172 6.30469 11.6328 6.40625C11.6523 6.50781 11.6621 6.60547 11.6621 6.69922C11.6621 7.23047 11.6562 7.75977 11.6445 8.28711C11.6367 8.81445 11.627 9.34375 11.6152 9.875L11.0996 9.93359L11.123 10.8828L13.0918 10.9648Z" fill="#83A5FF"/>
<path fill-rule="evenodd" clip-rule="evenodd" d="M18.166 10.8711L16.5957 10.918L16.5137 10.2383C16.3848 10.4492 16.2129 10.6152 15.998 10.7363C15.7832 10.8574 15.5527 10.918 15.3066 10.918C15.0645 10.918 14.8555 10.8672 14.6797 10.7656C14.5078 10.6641 14.3594 10.5293 14.2344 10.3613C14.1133 10.1934 14.0137 10.002 13.9355 9.78711C13.8613 9.57227 13.8027 9.35156 13.7598 9.125C13.7207 8.89844 13.6934 8.67578 13.6777 8.45703C13.6621 8.23828 13.6543 8.03906 13.6543 7.85938C13.6543 7.67969 13.666 7.47852 13.6895 7.25586C13.7129 7.0293 13.752 6.80078 13.8066 6.57031C13.8652 6.33984 13.9395 6.11523 14.0293 5.89648C14.123 5.67773 14.2363 5.48242 14.3691 5.31055C14.5059 5.13867 14.666 5.00195 14.8496 4.90039C15.0332 4.79492 15.2441 4.74219 15.4824 4.74219C15.666 4.74219 15.8398 4.79102 16.0039 4.88867C16.1719 4.98242 16.3027 5.10547 16.3965 5.25781V3.34766H15.3418V2.33984L17.4863 2.375L17.3926 9.92188L18.166 9.89844V10.8711ZM16.3613 6.54688C16.3379 6.47656 16.3047 6.39844 16.2617 6.3125C16.2188 6.22656 16.166 6.14648 16.1035 6.07227C16.0449 5.99414 15.9766 5.92969 15.8984 5.87891C15.8242 5.82422 15.7441 5.79688 15.6582 5.79688C15.5293 5.79688 15.416 5.83398 15.3184 5.9082C15.2246 5.98242 15.1445 6.07812 15.0781 6.19531C15.0117 6.3125 14.9551 6.44531 14.9082 6.59375C14.8652 6.73828 14.832 6.88477 14.8086 7.0332C14.7852 7.17773 14.7676 7.31641 14.7559 7.44922C14.748 7.57812 14.7441 7.6875 14.7441 7.77734V8.09961C14.7441 8.23242 14.75 8.37695 14.7617 8.5332C14.7734 8.68555 14.793 8.8418 14.8203 9.00195C14.8516 9.1582 14.8945 9.30078 14.9492 9.42969C15.0039 9.55859 15.0742 9.66406 15.1602 9.74609C15.2461 9.82422 15.3535 9.86328 15.4824 9.86328C15.5801 9.86328 15.6738 9.83594 15.7637 9.78125C15.8535 9.72266 15.9355 9.65234 16.0098 9.57031C16.084 9.48438 16.1484 9.39453 16.2031 9.30078C16.2617 9.20703 16.3066 9.12109 16.3379 9.04297L16.3613 6.54688Z" fill="#83A5FF"/>
<path fill-rule="evenodd" clip-rule="evenodd" d="M24.6523 10.8008L24.6758 9.86328H24.043C24.0898 9.33203 24.1172 8.80273 24.125 8.27539C24.1328 7.74805 24.1367 7.21875 24.1367 6.6875C24.1367 6.41406 24.1211 6.16406 24.0898 5.9375C24.0586 5.70703 23.9941 5.51172 23.8965 5.35156C23.8027 5.1875 23.6641 5.06055 23.4805 4.9707C23.3008 4.88086 23.0625 4.83594 22.7656 4.83594C22.6406 4.83594 22.5234 4.86523 22.4141 4.92383C22.3086 4.97852 22.2109 5.05078 22.1211 5.14062C22.0352 5.22656 21.959 5.32422 21.8926 5.43359C21.8262 5.54297 21.7734 5.64844 21.7344 5.75V4.89453L20.7617 4.91797L20.7969 7.09766L21.793 7.14453C21.8086 7.09375 21.832 7.02734 21.8633 6.94531C21.8945 6.85938 21.9316 6.76758 21.9746 6.66992C22.0176 6.57227 22.0645 6.47461 22.1152 6.37695C22.1699 6.27539 22.2285 6.18555 22.291 6.10742C22.3535 6.02539 22.4199 5.95898 22.4902 5.9082C22.5605 5.85742 22.6328 5.83203 22.707 5.83203C22.7734 5.83203 22.8281 5.86133 22.8711 5.91992C22.918 5.97461 22.957 6.04688 22.9883 6.13672C23.0234 6.22266 23.0508 6.32031 23.0703 6.42969C23.0898 6.53516 23.1035 6.63867 23.1113 6.74023C23.123 6.83789 23.1309 6.92773 23.1348 7.00977C23.1387 7.08789 23.1406 7.14453 23.1406 7.17969V7.36719C23.1406 7.42578 23.1367 7.48828 23.1289 7.55469C23.0273 7.51953 22.9238 7.49609 22.8184 7.48438C22.7168 7.46875 22.6133 7.46094 22.5078 7.46094C22.2422 7.46094 21.998 7.50391 21.7754 7.58984C21.5527 7.67188 21.3613 7.79102 21.2012 7.94727C21.0449 8.09961 20.9219 8.28516 20.832 8.50391C20.7461 8.72266 20.7031 8.96484 20.7031 9.23047C20.7031 9.44141 20.7246 9.64844 20.7676 9.85156C20.8105 10.0547 20.8809 10.2363 20.9785 10.3965C21.0801 10.5527 21.2129 10.6797 21.377 10.7773C21.5449 10.8711 21.75 10.918 21.9922 10.918C22.1172 10.918 22.2441 10.8984 22.373 10.8594C22.5059 10.8242 22.6328 10.7754 22.7539 10.7129C22.8789 10.6465 22.9941 10.5742 23.0996 10.4961C23.209 10.4141 23.3047 10.3281 23.3867 10.2383L23.4453 10.918L24.6523 10.8008ZM23.1641 8.60938V9.46484C23.1641 9.55078 23.1289 9.625 23.0586 9.6875C22.9883 9.74609 22.9043 9.79492 22.8066 9.83398C22.7129 9.87305 22.6133 9.90234 22.5078 9.92188C22.4062 9.9375 22.3242 9.94531 22.2617 9.94531C22.0664 9.94531 21.9199 9.88281 21.8223 9.75781C21.7246 9.62891 21.6758 9.47266 21.6758 9.28906C21.6758 8.98828 21.7637 8.76953 21.9395 8.63281C22.1152 8.49219 22.3438 8.42188 22.625 8.42188C22.7148 8.42188 22.8125 8.43359 22.918 8.45703C23.0273 8.48047 23.1094 8.53125 23.1641 8.60938Z" fill="#83A5FF"/>
<path d="M29.7559 10.9648L27.7871 10.8828L27.7637 9.93359L28.2793 9.875C28.291 9.34375 28.3008 8.81445 28.3086 8.28711C28.3203 7.75977 28.3262 7.23047 28.3262 6.69922C28.3262 6.60547 28.3164 6.50781 28.2969 6.40625C28.2812 6.30469 28.252 6.21094 28.209 6.125C28.166 6.03906 28.1055 5.96875 28.0273 5.91406C27.9531 5.85938 27.8574 5.83203 27.7402 5.83203C27.5684 5.83203 27.4219 5.88086 27.3008 5.97852C27.1836 6.07227 27.0879 6.18945 27.0137 6.33008C26.9395 6.4707 26.8848 6.62305 26.8496 6.78711C26.8145 6.95117 26.7949 7.10156 26.791 7.23828C26.7715 7.67969 26.7578 8.11914 26.75 8.55664C26.7461 8.99414 26.7402 9.43359 26.7324 9.875H27.248L27.3066 10.8242L25.2793 10.8477V9.76953L25.8535 9.73438L25.8184 5.92578L24.9629 5.86719L24.9863 4.87109L26.6738 4.8125L26.709 5.64453C26.7871 5.52734 26.8789 5.41602 26.9844 5.31055C27.0938 5.20117 27.2129 5.10547 27.3418 5.02344C27.4707 4.94141 27.6055 4.87695 27.7461 4.83008C27.8906 4.7793 28.0371 4.75391 28.1855 4.75391C28.3613 4.75391 28.5117 4.7832 28.6367 4.8418C28.7617 4.90039 28.8672 4.98047 28.9531 5.08203C29.0391 5.18359 29.1055 5.30078 29.1523 5.43359C29.2031 5.5625 29.2422 5.70117 29.2695 5.84961C29.2969 5.99414 29.3145 6.14258 29.3223 6.29492C29.3301 6.44336 29.334 6.58594 29.334 6.72266C29.334 7.26562 29.3262 7.80664 29.3105 8.3457L29.2754 9.96875L29.873 10.0273L29.7559 10.9648Z" fill="#83A5FF"/>
<path fill-rule="evenodd" clip-rule="evenodd" d="M33.2598 10.918L34.8301 10.8711V9.89844L34.0566 9.92188L34.1504 2.375L32.0059 2.33984V3.34766H33.0605V5.25781C32.9668 5.10547 32.8359 4.98242 32.668 4.88867C32.5039 4.79102 32.3301 4.74219 32.1465 4.74219C31.9082 4.74219 31.6973 4.79492 31.5137 4.90039C31.3301 5.00195 31.1699 5.13867 31.0332 5.31055C30.9004 5.48242 30.7871 5.67773 30.6934 5.89648C30.6035 6.11523 30.5293 6.33984 30.4707 6.57031C30.416 6.80078 30.377 7.0293 30.3535 7.25586C30.3301 7.47852 30.3184 7.67969 30.3184 7.85938C30.3184 8.03906 30.3262 8.23828 30.3418 8.45703C30.3574 8.67578 30.3848 8.89844 30.4238 9.125C30.4668 9.35156 30.5254 9.57227 30.5996 9.78711C30.6777 10.002 30.7773 10.1934 30.8984 10.3613C31.0234 10.5293 31.1719 10.6641 31.3438 10.7656C31.5195 10.8672 31.7285 10.918 31.9707 10.918C32.2168 10.918 32.4473 10.8574 32.6621 10.7363C32.877 10.6152 33.0488 10.4492 33.1777 10.2383L33.2598 10.918ZM32.9258 6.3125C32.9688 6.39844 33.002 6.47656 33.0254 6.54688L33.002 9.04297C32.9707 9.12109 32.9258 9.20703 32.8672 9.30078C32.8125 9.39453 32.748 9.48438 32.6738 9.57031C32.5996 9.65234 32.5176 9.72266 32.4277 9.78125C32.3379 9.83594 32.2441 9.86328 32.1465 9.86328C32.0176 9.86328 31.9102 9.82422 31.8242 9.74609C31.7383 9.66406 31.668 9.55859 31.6133 9.42969C31.5586 9.30078 31.5156 9.1582 31.4844 9.00195C31.457 8.8418 31.4375 8.68555 31.4258 8.5332C31.4141 8.37695 31.4082 8.23242 31.4082 8.09961V7.77734C31.4082 7.6875 31.4121 7.57812 31.4199 7.44922C31.4316 7.31641 31.4492 7.17773 31.4727 7.0332C31.4961 6.88477 31.5293 6.73828 31.5723 6.59375C31.6191 6.44531 31.6758 6.3125 31.7422 6.19531C31.8086 6.07812 31.8887 5.98242 31.9824 5.9082C32.0801 5.83398 32.1934 5.79688 32.3223 5.79688C32.4082 5.79688 32.4883 5.82422 32.5625 5.87891C32.6406 5.92969 32.709 5.99414 32.7676 6.07227C32.8301 6.14648 32.8828 6.22656 32.9258 6.3125Z" fill="#83A5FF"/>
<path d="M9.76367 19.5C9.76367 19.7188 9.7207 19.9199 9.63477 20.1035C9.55273 20.2832 9.43945 20.4414 9.29492 20.5781C9.15039 20.7109 8.98242 20.8145 8.79102 20.8887C8.60352 20.9629 8.4043 21 8.19336 21C7.99805 21 7.82031 20.9473 7.66016 20.8418C7.5 20.7363 7.36133 20.6133 7.24414 20.4727L7.11523 20.9766L6.37695 20.918L6.43555 18.9727L7.56055 18.9844C7.55273 19.0312 7.54688 19.0801 7.54297 19.1309C7.53906 19.1816 7.53711 19.2305 7.53711 19.2773C7.53711 19.3711 7.54883 19.4629 7.57227 19.5527C7.5957 19.6387 7.63086 19.7168 7.67773 19.7871C7.72461 19.8574 7.78516 19.9141 7.85938 19.957C7.9375 19.9961 8.0293 20.0156 8.13477 20.0156C8.20898 20.0156 8.27734 19.998 8.33984 19.9629C8.40625 19.9238 8.46094 19.875 8.50391 19.8164C8.55078 19.7578 8.58594 19.6934 8.60938 19.623C8.63672 19.5527 8.65039 19.4844 8.65039 19.418C8.65039 19.25 8.61133 19.1016 8.5332 18.9727C8.45898 18.8398 8.36328 18.7207 8.24609 18.6152C8.12891 18.5098 8 18.416 7.85938 18.334C7.71875 18.248 7.58398 18.1719 7.45508 18.1055C7.24414 17.9961 7.06836 17.8809 6.92773 17.7598C6.79102 17.6387 6.68164 17.5059 6.59961 17.3613C6.51758 17.2129 6.45898 17.0488 6.42383 16.8691C6.39258 16.6895 6.37695 16.4844 6.37695 16.2539C6.37695 16.0391 6.41797 15.8398 6.5 15.6562C6.58594 15.4727 6.70117 15.3145 6.8457 15.1816C6.99023 15.0449 7.15625 14.9395 7.34375 14.8652C7.53516 14.791 7.73633 14.7539 7.94727 14.7539C8.14258 14.7539 8.32031 14.8066 8.48047 14.9121C8.64062 15.0176 8.7793 15.1406 8.89648 15.2812L9.02539 14.7773L9.76367 14.8359L9.70508 16.7812L8.58008 16.7695C8.58789 16.7227 8.59375 16.6738 8.59766 16.623C8.60156 16.5723 8.60352 16.5234 8.60352 16.4766C8.60352 16.3828 8.5918 16.293 8.56836 16.207C8.54492 16.1172 8.50977 16.0371 8.46289 15.9668C8.41602 15.8965 8.35352 15.8418 8.27539 15.8027C8.20117 15.7598 8.11133 15.7383 8.00586 15.7383C7.93164 15.7383 7.86328 15.7578 7.80078 15.7969C7.73828 15.832 7.68359 15.8789 7.63672 15.9375C7.58984 15.9961 7.55273 16.0605 7.52539 16.1309C7.50195 16.2012 7.49023 16.2695 7.49023 16.3359C7.49023 16.5078 7.52539 16.6602 7.5957 16.793C7.66992 16.9258 7.76172 17.0449 7.87109 17.1504C7.98438 17.2559 8.10938 17.3516 8.24609 17.4375C8.38672 17.5195 8.52539 17.5938 8.66211 17.6602C8.86523 17.7656 9.03516 17.8789 9.17188 18C9.3125 18.1211 9.42578 18.2559 9.51172 18.4043C9.60156 18.5527 9.66602 18.7168 9.70508 18.8965C9.74414 19.0762 9.76367 19.2773 9.76367 19.5Z" fill="#83A5FF"/>
<path fill-rule="evenodd" clip-rule="evenodd" d="M13.9707 18.2461C13.9941 17.9414 14.0059 17.6289 14.0059 17.3086C14.0059 16.9531 13.9883 16.6211 13.9531 16.3125C13.9219 16 13.8438 15.7305 13.7188 15.5039C13.5977 15.2734 13.418 15.0938 13.1797 14.9648C12.9414 14.832 12.6152 14.7656 12.2012 14.7656C11.959 14.7656 11.7461 14.8125 11.5625 14.9062C11.3789 14.9961 11.2207 15.1172 11.0879 15.2695C10.9551 15.418 10.8438 15.5918 10.7539 15.791C10.668 15.9902 10.5996 16.1973 10.5488 16.4121C10.498 16.627 10.4609 16.8438 10.4375 17.0625C10.418 17.2812 10.4082 17.4844 10.4082 17.6719C10.4082 17.8789 10.416 18.1035 10.4316 18.3457C10.4473 18.5879 10.4766 18.8301 10.5195 19.0723C10.5664 19.3105 10.6328 19.543 10.7188 19.7695C10.8047 19.9922 10.916 20.1895 11.0527 20.3613C11.1895 20.5332 11.3555 20.6719 11.5508 20.7773C11.75 20.8789 11.9863 20.9297 12.2598 20.9297C12.5215 20.9297 12.75 20.873 12.9453 20.7598C13.1406 20.6426 13.3066 20.4922 13.4434 20.3086C13.5801 20.125 13.6895 19.9199 13.7715 19.6934C13.8535 19.4668 13.9121 19.2422 13.9473 19.0195H12.9277C12.916 19.1211 12.8945 19.2285 12.8633 19.3418C12.832 19.4551 12.7871 19.5605 12.7285 19.6582C12.6738 19.752 12.6016 19.832 12.5117 19.8984C12.4258 19.9609 12.3223 19.9922 12.2012 19.9922C12.0879 19.9922 11.9902 19.9629 11.9082 19.9043C11.8301 19.8418 11.7637 19.7617 11.709 19.6641C11.6543 19.5625 11.6094 19.4512 11.5742 19.3301C11.543 19.2051 11.5176 19.0801 11.498 18.9551C11.4824 18.8262 11.4707 18.7051 11.4629 18.5918C11.4551 18.4746 11.4512 18.375 11.4512 18.293L13.9707 18.2461ZM12.8691 16.1484C12.9199 16.2812 12.9512 16.4219 12.9629 16.5703C12.9785 16.7188 12.9863 16.8516 12.9863 16.9688C12.9863 17.125 12.9746 17.2852 12.9512 17.4492H11.4395C11.4395 17.3516 11.4414 17.2402 11.4453 17.1152C11.4531 16.9902 11.4648 16.8633 11.4805 16.7344C11.4961 16.6016 11.5215 16.4727 11.5566 16.3477C11.5918 16.2188 11.6406 16.1055 11.7031 16.0078C11.7656 15.9102 11.8438 15.832 11.9375 15.7734C12.0312 15.7109 12.1465 15.6797 12.2832 15.6797C12.4395 15.6797 12.5645 15.7246 12.6582 15.8145C12.752 15.9043 12.8223 16.0156 12.8691 16.1484Z" fill="#83A5FF"/>
<path d="M17.6211 14.8945L17.5977 15.9492H16.5664L16.5312 17.5195C16.5234 18.043 16.5195 18.5703 16.5195 19.1016C16.5195 19.2266 16.543 19.3359 16.5898 19.4297C16.6406 19.5234 16.707 19.6035 16.7891 19.6699C16.8711 19.7324 16.9648 19.7812 17.0703 19.8164C17.1758 19.8477 17.2852 19.8633 17.3984 19.8633H17.498C17.5293 19.8633 17.5625 19.8594 17.5977 19.8516V20.8945C17.4102 20.9414 17.2188 20.9648 17.0234 20.9648C16.7695 20.9648 16.541 20.9199 16.3379 20.8301C16.1348 20.7363 15.9629 20.6113 15.8223 20.4551C15.6816 20.2949 15.5723 20.1094 15.4941 19.8984C15.4199 19.6875 15.3828 19.4609 15.3828 19.2188C15.3828 18.6719 15.3867 18.127 15.3945 17.584L15.4297 15.9492H14.5391V14.8945H15.4531L15.5234 12.8555H16.6367L16.5898 14.8945H17.6211Z" fill="#83A5FF"/>
<path d="M22.8887 16.3301C23.0293 16.2559 23.1738 16.2031 23.3223 16.1719V14.8242C23.2129 14.8477 23.0957 14.8887 22.9707 14.9473C22.8496 15.002 22.7285 15.0645 22.6074 15.1348C22.4863 15.2051 22.3711 15.2793 22.2617 15.3574C22.1523 15.4355 22.0566 15.5078 21.9746 15.5742V14.7656L20.4043 14.918L20.4395 15.9961L21.0605 15.9727L20.9785 19.7461L20.2051 19.7812L20.123 20.8945L22.9824 20.8359V19.7812L22.127 19.7461C22.1348 19.3555 22.1406 18.9688 22.1445 18.5859C22.1484 18.2031 22.1504 17.8164 22.1504 17.4258C22.1504 17.2617 22.1836 17.1113 22.25 16.9746C22.3164 16.834 22.4043 16.7109 22.5137 16.6055C22.623 16.4961 22.748 16.4043 22.8887 16.3301Z" fill="#83A5FF"/>
<path fill-rule="evenodd" clip-rule="evenodd" d="M27.4121 17.3086C27.4121 17.6289 27.4004 17.9414 27.377 18.2461L24.8574 18.293C24.8574 18.375 24.8613 18.4746 24.8691 18.5918C24.877 18.7051 24.8887 18.8262 24.9043 18.9551C24.9238 19.0801 24.9492 19.2051 24.9805 19.3301C25.0156 19.4512 25.0605 19.5625 25.1152 19.6641C25.1699 19.7617 25.2363 19.8418 25.3145 19.9043C25.3965 19.9629 25.4941 19.9922 25.6074 19.9922C25.7285 19.9922 25.832 19.9609 25.918 19.8984C26.0078 19.832 26.0801 19.752 26.1348 19.6582C26.1934 19.5605 26.2383 19.4551 26.2695 19.3418C26.3008 19.2285 26.3223 19.1211 26.334 19.0195H27.3535C27.3184 19.2422 27.2598 19.4668 27.1777 19.6934C27.0957 19.9199 26.9863 20.125 26.8496 20.3086C26.7129 20.4922 26.5469 20.6426 26.3516 20.7598C26.1562 20.873 25.9277 20.9297 25.666 20.9297C25.3926 20.9297 25.1562 20.8789 24.957 20.7773C24.7617 20.6719 24.5957 20.5332 24.459 20.3613C24.3223 20.1895 24.2109 19.9922 24.125 19.7695C24.0391 19.543 23.9727 19.3105 23.9258 19.0723C23.8828 18.8301 23.8535 18.5879 23.8379 18.3457C23.8223 18.1035 23.8145 17.8789 23.8145 17.6719C23.8145 17.4844 23.8242 17.2812 23.8438 17.0625C23.8672 16.8438 23.9043 16.627 23.9551 16.4121C24.0059 16.1973 24.0742 15.9902 24.1602 15.791C24.25 15.5918 24.3613 15.418 24.4941 15.2695C24.627 15.1172 24.7852 14.9961 24.9688 14.9062C25.1523 14.8125 25.3652 14.7656 25.6074 14.7656C26.0215 14.7656 26.3477 14.832 26.5859 14.9648C26.8242 15.0938 27.0039 15.2734 27.125 15.5039C27.25 15.7305 27.3281 16 27.3594 16.3125C27.3945 16.6211 27.4121 16.9531 27.4121 17.3086ZM26.3691 16.5703C26.3574 16.4219 26.3262 16.2812 26.2754 16.1484C26.2285 16.0156 26.1582 15.9043 26.0645 15.8145C25.9707 15.7246 25.8457 15.6797 25.6895 15.6797C25.5527 15.6797 25.4375 15.7109 25.3438 15.7734C25.25 15.832 25.1719 15.9102 25.1094 16.0078C25.0469 16.1055 24.998 16.2188 24.9629 16.3477C24.9277 16.4727 24.9023 16.6016 24.8867 16.7344C24.8711 16.8633 24.8594 16.9902 24.8516 17.1152C24.8477 17.2402 24.8457 17.3516 24.8457 17.4492H26.3574C26.3809 17.2852 26.3926 17.125 26.3926 16.9688C26.3926 16.8516 26.3848 16.7188 26.3691 16.5703Z" fill="#83A5FF"/>
<path d="M31.6426 13.1953L31.666 12.1641C31.584 12.1562 31.5039 12.1504 31.4258 12.1465C31.3477 12.1426 31.2676 12.1406 31.1855 12.1406C30.7168 12.1406 30.3281 12.2031 30.0195 12.3281C29.7148 12.4531 29.4707 12.6328 29.2871 12.8672C29.1074 13.1016 28.9785 13.3867 28.9004 13.7227C28.8262 14.0586 28.7871 14.4375 28.7832 14.8594H27.9629L27.9395 15.8906H28.7949V19.7812L28.0215 19.8047V20.8359H30.4941L30.5293 19.8633L29.8496 19.8867V15.9258L30.5645 15.9727L30.623 14.8594H29.8379C29.8496 14.5039 29.8867 14.2168 29.9492 13.998C30.0156 13.7754 30.1191 13.6035 30.2598 13.4824C30.4004 13.3613 30.582 13.2812 30.8047 13.2422C31.0312 13.2031 31.3105 13.1875 31.6426 13.1953Z" fill="#83A5FF"/>
<path d="M18.918 22.8594H31.918V21.8594H18.918V22.8594Z" fill="#83A5FF"/>
</svg>
